<svg width="12" height="11" viewBox="0 0 12 11" fill="none" xmlns="http://www.w3.org/2000/svg">
<path d="M0.7 10C0.7 10.1657 0.834315 10.3 1 10.3H3.7C3.86569 10.3 4 10.1657 4 10C4 9.83431 3.86569 9.7 3.7 9.7H1.3L1.3 7.3C1.3 7.13431 1.16569 7 1 7C0.834315 7 0.7 7.13431 0.7 7.3V10ZM3.78787 6.78787L0.787868 9.78787L1.21213 10.2121L4.21213 7.21213L3.78787 6.78787Z" fill="#F8FCFE"/>
<path d="M0.999925 0.700018C0.83424 0.700083 0.699978 0.834451 0.700043 1.00014L0.701103 3.70014C0.701168 3.86582 0.835536 4.00008 1.00122 4.00002C1.16691 3.99995 1.30117 3.86559 1.3011 3.6999L1.30016 1.2999L3.70016 1.29896C3.86585 1.29889 4.00011 1.16453 4.00004 0.998841C3.99998 0.833155 3.86561 0.698893 3.69993 0.698958L0.999925 0.700018ZM4.21327 3.78663L1.21209 0.787803L0.787994 1.21223L3.78917 4.21106L4.21327 3.78663Z" fill="#F8FCFE"/>
<path d="M11.3 1C11.3 0.834315 11.1657 0.7 11 0.7H8.3C8.13431 0.7 8 0.834315 8 1C8 1.16569 8.13431 1.3 8.3 1.3L10.7 1.3V3.7C10.7 3.86569 10.8343 4 11 4C11.1657 4 11.3 3.86569 11.3 3.7V1ZM8.21213 4.21213L11.2121 1.21213L10.7879 0.787868L7.78787 3.78787L8.21213 4.21213Z" fill="#F8FCFE"/>
<path d="M11.0297 10.2727C11.1954 10.2712 11.3285 10.1357 11.327 9.97001L11.3026 7.27012C11.3011 7.10445 11.1656 6.97135 10.9999 6.97285C10.8342 6.97435 10.7011 7.10988 10.7026 7.27555L10.7243 9.67546L8.32442 9.69717C8.15874 9.69867 8.02565 9.8342 8.02715 9.99988C8.02865 10.1656 8.16417 10.2986 8.32985 10.2971L11.0297 10.2727ZM7.7898 7.21404L10.8168 10.1868L11.2372 9.75869L8.2102 6.78596L7.7898 7.21404Z" fill="#F8FCFE"/>
</svg>
