<svg width="173" height="189" viewBox="0 0 173 189" fill="none" xmlns="http://www.w3.org/2000/svg">
<g clip-path="url(#clip0_2_424)">
<g clip-path="url(#clip1_2_424)">
<path fill-rule="evenodd" clip-rule="evenodd" d="M1.00009 125.223H63.5527V187.998H1.00009V125.223Z" fill="#3C4140"/>
<path fill-rule="evenodd" clip-rule="evenodd" d="M36.6408 168.781L39.2975 165.94L30.5684 156.609L39.2975 147.279L36.6408 144.439L25.2551 156.609L36.6408 168.781Z" fill="#878787"/>
</g>
<g clip-path="url(#clip2_2_424)">
<path fill-rule="evenodd" clip-rule="evenodd" d="M109.447 125.223H172V187.997H109.447V125.223Z" fill="#18CFAB"/>
<path fill-rule="evenodd" clip-rule="evenodd" d="M136.359 144.44L133.702 147.279L142.431 156.609L133.702 165.94L136.359 168.781L147.745 156.609L136.359 144.44Z" fill="white"/>
</g>
<g clip-path="url(#clip3_2_424)">
<g style="mix-blend-mode:multiply" opacity="0.3">
<path fill-rule="evenodd" clip-rule="evenodd" d="M0.99994 1.99746H172V106.623H0.99994V1.99746Z" fill="#171717"/>
</g>
<g style="mix-blend-mode:multiply" opacity="0.3">
<path fill-rule="evenodd" clip-rule="evenodd" d="M0.99994 1.99746H172V106.623H0.99994V1.99746Z" fill="#171717"/>
</g>
</g>
</g>
<defs>
<clipPath id="clip0_2_424">
<rect width="173" height="189" fill="white"/>
</clipPath>
<clipPath id="clip1_2_424">
<rect width="65" height="65" fill="white" transform="translate(0 124)"/>
</clipPath>
<clipPath id="clip2_2_424">
<rect width="65" height="65" fill="white" transform="translate(108 124)"/>
</clipPath>
<clipPath id="clip3_2_424">
<rect width="173" height="108" fill="white"/>
</clipPath>
</defs>
</svg>
